<svg xmlns="http://www.w3.org/2000/svg" width="128" height="128" viewBox="0 0 128 128">
  <title>BED</title>
  <g>
    <path d="M18.167,74.825h90.921a0,0,0,0,1,0,0v3.551a9.58,9.58,0,0,1-9.58,9.58H27.746a9.58,9.58,0,0,1-9.58-9.58V74.825A0,0,0,0,1,18.167,74.825Z" transform="translate(127.254 162.781) rotate(180)" fill="#ffc82c"/>
    <polygon points="109.087 65.663 109.087 87.956 18.167 87.956 18.167 51.749 10.167 51.749 10.167 106.241 18.167 106.241 18.167 96.026 109.087 96.026 109.087 106.241 117.833 106.241 117.833 65.663 109.087 65.663" fill="#f93e55"/>
    <rect x="24.467" y="65.663" width="24.75" height="9.162" rx="3.871" fill="#ff8955"/>
    <rect x="18.167" y="87.956" width="90.921" height="8.07" fill="#d81e46"/>
  </g>
</svg>
