<svg id="Layer_2" data-name="Layer 2" xmlns="http://www.w3.org/2000/svg" viewBox="0 0 128 128"><title>HARMONICA</title><path d="M99.455,27.641a1.75,1.75,0,0,0,1.75-1.75V23.215a1.75,1.75,0,1,0-3.5,0v2.676A1.75,1.75,0,0,0,99.455,27.641Z"/><path d="M102.714,31.094h2.675a1.75,1.75,0,1,0,0-3.5h-2.675a1.75,1.75,0,1,0,0,3.5Z"/><path d="M99.261,30.853a1.75,1.75,0,0,0-1.75,1.75v2.675a1.75,1.75,0,0,0,3.5,0V32.6A1.75,1.75,0,0,0,99.261,30.853Z"/><path d="M93.326,30.9H96a1.75,1.75,0,0,0,0-3.5H93.326a1.75,1.75,0,0,0,0,3.5Z"/><path d="M26.254,34.923A1.75,1.75,0,0,0,28,33.173V30.5a1.75,1.75,0,0,0-3.5,0v2.675A1.75,1.75,0,0,0,26.254,34.923Z"/><path d="M29.513,38.376h2.675a1.75,1.75,0,0,0,0-3.5H29.513a1.75,1.75,0,1,0,0,3.5Z"/><path d="M26.06,38.135a1.75,1.75,0,0,0-1.75,1.75v2.676a1.75,1.75,0,0,0,3.5,0V39.885A1.75,1.75,0,0,0,26.06,38.135Z"/><path d="M20.125,38.182H22.8a1.75,1.75,0,0,0,0-3.5H20.125a1.75,1.75,0,0,0,0,3.5Z"/><path d="M18.961,62.185,67.128,89.851a1.75,1.75,0,0,0,1.734,0l40.167-22.747a1.75,1.75,0,0,0,.015-3.037l-8.225-4.76,3.973-2.446a1.75,1.75,0,0,0-.045-3.008L77.122,37.982a1.749,1.749,0,0,0-1.739,0l-5.749,3.281L60.21,35.808a1.753,1.753,0,0,0-1.768.008L18.942,59.16a1.751,1.751,0,0,0,.019,3.024Zm52.416-5.147V46.315L90.63,57.458Zm14.271,3.813-11.363,3.2-1.772-3.487Zm-9.4-19.334,24.205,13.91-3.074,1.893-.257-.149L73.139,43.291ZM59.342,39.35l7.7,4.457L58.1,55.7a1.749,1.749,0,0,0,1.06,2.769L68.452,60.3l3.362,6.616a1.751,1.751,0,0,0,1.561.957,1.771,1.771,0,0,0,.475-.065l23.319-6.567,7.476,4.327L68.006,86.318,47.531,74.558l9.275-5.467a1.75,1.75,0,1,0-1.777-3.016L44.039,72.553,23.309,60.646Zm8.535,9.171v8.1l-5.3-1.047Z"/><path d="M107.3,75.813l-39.3,22.256L20.705,70.9a1.75,1.75,0,1,0-1.744,3.035L67.128,101.6a1.75,1.75,0,0,0,1.734,0l40.167-22.748a1.75,1.75,0,0,0-1.725-3.045Z"/><path d="M107.3,87.563l-39.3,22.255-47.3-27.169a1.75,1.75,0,1,0-1.744,3.035L67.128,113.35a1.75,1.75,0,0,0,1.734,0l40.167-22.747a1.75,1.75,0,0,0-1.725-3.045Z"/><path d="M58.6,66.439a1.709,1.709,0,0,0,1.23.521,2.131,2.131,0,0,0,.35-.04,1.187,1.187,0,0,0,.32-.1,1.451,1.451,0,0,0,.569-.38,1.794,1.794,0,0,0,.381-.56,1.706,1.706,0,0,0,.13-.67,1.757,1.757,0,0,0-.511-1.24,1.807,1.807,0,0,0-2.47,0,1.766,1.766,0,0,0-.52,1.24,1.9,1.9,0,0,0,.13.67A1.654,1.654,0,0,0,58.6,66.439Z"/><path d="M62.939,63.13a1.67,1.67,0,0,0,.391.56,1.707,1.707,0,0,0,1.229.521,1.66,1.66,0,0,0,.67-.141,1.454,1.454,0,0,0,.57-.38,1.761,1.761,0,0,0,.22-.26,1.761,1.761,0,0,0,.261-.63,2.005,2.005,0,0,0,.029-.34,1.906,1.906,0,0,0-.029-.34,1.823,1.823,0,0,0-.1-.33,1.392,1.392,0,0,0-.16-.3,1.907,1.907,0,0,0-.22-.271,1.807,1.807,0,0,0-2.47,0,1.451,1.451,0,0,0-.221.271,1.434,1.434,0,0,0-.159.3,1.927,1.927,0,0,0-.141.67,1.309,1.309,0,0,0,.04.34A2.073,2.073,0,0,0,62.939,63.13Z"/></svg>