<svg xmlns="http://www.w3.org/2000/svg" viewBox="0 0 64 64"><g id="_19-Dry" data-name="19-Dry"><path d="M6.88,27.211l6.12.68V50L6,46V27l.05-.07A2,2,0,0,0,6.88,27.211Z" style="fill:#b1dfe3"/><path d="M13,19V17a2.006,2.006,0,0,0-2-2H6a3,3,0,0,1,3-3h8.53a2.53,2.53,0,0,0-1.25,4.73L18.84,18H16.9a1.9,1.9,0,0,0-.95,3.55l7.83,4.34-5-2.5a1.716,1.716,0,0,0-1.56,0l-.26.13a1.731,1.731,0,0,0-.19,2.99L31,36l16,7,1,.43V59H13V19Z" style="fill:#e3fdff"/><path d="M13,17v2H6a2.015,2.015,0,0,1-2-2,2.006,2.006,0,0,1,2-2h5A2.006,2.006,0,0,1,13,17Z" style="fill:#ffb4a3"/><path d="M10,19h3v4H3a1.955,1.955,0,0,1-1.41-.59A1.955,1.955,0,0,1,1,21a2.006,2.006,0,0,1,2-2h7Z" style="fill:#ffb4a3"/><path d="M13,23v4.89l-6.12-.68a2,2,0,0,1-.83-.28A2.089,2.089,0,0,1,5,25.111,2.117,2.117,0,0,1,7.11,23H13Z" style="fill:#ffb4a3"/><path d="M42,12.9l3.82,6.78L41,17l-6.2-2.28L32,11.711,28.15,9.042a2.585,2.585,0,0,1-.61-3.63,1,1,0,0,1,1.18-.34L35,7.572Z" style="fill:#ffb4a3"/><path d="M48,43.431,47,43,31,36l-14.23-9.49a1.731,1.731,0,0,1,.19-2.99l.26-.13a1.716,1.716,0,0,1,1.56,0l5,2.5-7.83-4.34A1.9,1.9,0,0,1,16.9,18h1.94l-2.56-1.27A2.53,2.53,0,0,1,17.53,12h.84a2.463,2.463,0,0,1,.67.09A2.555,2.555,0,0,1,21.55,10a2.444,2.444,0,0,1,.88.16L34.8,14.721,41,17l4.82,2.68L50,22l-3.57-8.93A6.058,6.058,0,0,1,46,10.842V8.852a1.854,1.854,0,0,1,3.51-.83L56,21l3,9,4,5V57L54,46Z" style="fill:#ffc9bd"/><polygon points="48 43.431 54 46 63 57 63 63 48 44.271 48 43.431" style="fill:#fa9d82"/><path d="M34.019,22.964l-16.514-8.65a2.072,2.072,0,0,1-1.1-2.038,2.521,2.521,0,0,0-.124,4.455L18.84,18,35,26A2.278,2.278,0,0,0,34.019,22.964Z" style="fill:#ffb4a3"/><path d="M37,21a2.11,2.11,0,0,0-1.055-2.882l-14.291-6.14a1.805,1.805,0,0,1-1.183-1.728,2.553,2.553,0,0,0-1.431,1.84,2.254,2.254,0,0,1,.51.2Z" style="fill:#ffb4a3"/><path d="M51.257,20.144l-2.916-7.291A4.762,4.762,0,0,1,48,11.084V9a1.99,1.99,0,0,0-1.056-1.753A1.842,1.842,0,0,0,46,8.852v1.989a6.059,6.059,0,0,0,.43,2.23L50,22A1.354,1.354,0,0,0,51.257,20.144Z" style="fill:#ffb4a3"/><path d="M59,30v8.821A4.179,4.179,0,0,1,54.822,43h0a4.166,4.166,0,0,1-1.582-.312L32,34,17.066,24.667a.976.976,0,0,1-.445-.915,1.722,1.722,0,0,0,.149,2.759L31,36l16,7,1,.43L54,46l9,11V35Z" style="fill:#ffb4a3"/><path d="M32.021,27.96l-15.2-8a2.1,2.1,0,0,1-1.1-1.545,1.894,1.894,0,0,0,.222,3.135l7.83,4.34L24,26l-.22-.11L33,31A2.282,2.282,0,0,0,32.021,27.96Z" style="fill:#ffb4a3"/><path d="M36.978,13.436a5.748,5.748,0,0,1-1.734-1.191L33.4,10.405a5.782,5.782,0,0,0-.878-.72L28.336,6.892a2.989,2.989,0,0,1-1-1.138,2.58,2.58,0,0,0,.817,3.288L32,11.711l2.8,3.01L41,17l4.82,2.68-1.74-3.089Z" style="fill:#fa9d82"/><path d="M11,15H10a1,1,0,0,1,0,2H5a1,1,0,0,1-.9-.583A1.978,1.978,0,0,0,4,17a2.015,2.015,0,0,0,2,2h7V17A2.006,2.006,0,0,0,11,15Z" style="fill:#fa9d82"/><path d="M11,20a1,1,0,0,1-1,1H3a1.993,1.993,0,0,1-1.722-1A1.976,1.976,0,0,0,1,21a1.955,1.955,0,0,0,.59,1.41A1.955,1.955,0,0,0,3,23H13V19H10A1,1,0,0,1,11,20Z" style="fill:#fa9d82"/><path d="M9.624,23A1.376,1.376,0,1,1,9.4,25.734L5.836,25.14a1,1,0,0,1-.749-.595,2.057,2.057,0,0,0,.963,2.386,2,2,0,0,0,.83.28l6.12.68V23H9.624Z" style="fill:#fa9d82"/><path d="M13,27.891l-6.12-.68a2,2,0,0,1-.83-.28L6,27v4H8a2,2,0,0,1,2,2V48.286L13,50Z" style="fill:#8cd1d6"/><path d="M47,43,31,36,16.873,26.58l-.1-.069a1.717,1.717,0,0,1-.706-1.9,1.713,1.713,0,0,1,.9-1.093l.26-.13a1.716,1.716,0,0,1,1.56,0l5,2.5-7.83-4.34a1.865,1.865,0,0,1-.2-.154A1.893,1.893,0,0,1,16.9,18h1.94l-2.56-1.27A2.53,2.53,0,0,1,17.53,12H10a1,1,0,0,0,0,2h1a2,2,0,0,1,2,2V59H48V56H31A12,12,0,0,1,19,44h0a6.958,6.958,0,0,1,10.818-5.789L31,39l16,7,1,.43v-3Z" style="fill:#c3f6fa"/><path d="M47,43,31,36,16.873,26.58l-.1-.069a1.717,1.717,0,0,1-.706-1.9,1.713,1.713,0,0,1,.9-1.093l.26-.13a1.716,1.716,0,0,1,1.56,0l5,2.5-7.83-4.34a1.865,1.865,0,0,1-.2-.154A1.893,1.893,0,0,1,16.9,18h1.94l-2.56-1.27A2.53,2.53,0,0,1,17.53,12H10a1,1,0,0,0,0,2h1a2,2,0,0,1,2,2V59H48V56H31A12,12,0,0,1,19,44h0a6.958,6.958,0,0,1,10.818-5.789L31,39l16,7,1,.43v-3Z" style="fill:#b5edf2"/><rect x="43" y="54" width="2" height="2"/><path d="M53.381,46.822l8.845,10.811,1.548-1.266-9-11a1,1,0,0,0-.38-.286l-6.993-3-15.92-6.965L17.327,25.683a.735.735,0,0,1,.078-1.268l.267-.133a.735.735,0,0,1,.656,0l4.985,2.493,9.2,5.1.97-1.75-9.042-5.011,0-.009-.193-.1-7.8-4.325A.9.9,0,0,1,16.9,19h1.705l15.948,7.9.888-1.792L16.771,15.86a1.531,1.531,0,0,1,.76-2.86h.844a1.554,1.554,0,0,1,.731.186L36.553,21.9l.894-1.79L20.354,11.573a1.53,1.53,0,0,1,1.727-.477l12.152,4.477.036.038.019-.018,6.294,2.319,4.5,2.5.044.077.047-.027,4.338,2.41a1,1,0,0,0,1.415-1.245L47.357,12.7A4.986,4.986,0,0,1,47,10.845V8.854a.854.854,0,0,1,1.618-.381l6.456,12.911,2.977,8.932a1.021,1.021,0,0,0,.168.309l4,5,1.562-1.25-3.889-4.86-2.943-8.831a1,1,0,0,0-.054-.131L50.407,7.578A2.854,2.854,0,0,0,45,8.854v1.991a6.969,6.969,0,0,0,.5,2.6l2.527,6.316-1.477-.82-3.679-6.532a1.016,1.016,0,0,0-.265-.3l-7-5.33a1.012,1.012,0,0,0-.236-.132l-6.284-2.5a1.994,1.994,0,0,0-2.351.687,3.584,3.584,0,0,0,.849,5.038l3.456,2.4L22.773,9.22A3.524,3.524,0,0,0,18.37,11H9a4,4,0,0,0-3.906,3.155A2.946,2.946,0,0,0,3.184,18H3a3,3,0,0,0,0,6H4.214a3.09,3.09,0,0,0,2.553,4.2L12,28.784V48.277L7,45.42V29H5V46a1,1,0,0,0,.5.868L12,50.58V59a1,1,0,0,0,1,1H48a1,1,0,0,0,1-1V47.12L62.22,63.625l1.56-1.25-13.533-16.9ZM32.731,11.031a.963.963,0,0,0-.161-.138L28.725,8.224A1.556,1.556,0,0,1,28.078,7.2,1.611,1.611,0,0,1,28.347,6L34.5,8.449,41.23,13.57l1.979,3.513-1.723-.957a.928.928,0,0,0-.14-.064l-5.975-2.2ZM5,17a1,1,0,0,1,1-1h5a1,1,0,0,1,1,1v1H6A1,1,0,0,1,5,17ZM2,21a1,1,0,0,1,1-1h9v2H3A1,1,0,0,1,2,21Zm4.988,5.215A1.111,1.111,0,0,1,7.111,24H12v2.771ZM14,58V56H41V54H14V17a3,3,0,0,0-3-3H7.278A1.993,1.993,0,0,1,9,13h5.364A3.487,3.487,0,0,0,14,14.531a3.535,3.535,0,0,0,1.476,2.86,2.889,2.889,0,0,0-.011,5.034l.741.411A2.7,2.7,0,0,0,15,25.072a2.73,2.73,0,0,0,1.218,2.275l14.227,9.485a1,1,0,0,0,.154.084l16.007,7,.394.169V58Z"/></g></svg>