<svg xmlns="http://www.w3.org/2000/svg" xmlns:xlink="http://www.w3.org/1999/xlink" viewBox="0 0 242.02 222.52"><defs><style>.cls-1{isolation:isolate;}.cls-2{opacity:0.4;mix-blend-mode:multiply;fill:url(#linear-gradient);}.cls-3{fill:#cec09f;}.cls-4,.cls-5{fill:#9dcc96;}.cls-5,.cls-6{stroke:#212683;stroke-miterlimit:10;stroke-width:6px;}.cls-6{fill:none;}.cls-7{fill:#212683;}.cls-8{fill:#1f268e;}</style><linearGradient id="linear-gradient" x1="-261.04" y1="1184.13" x2="-7.18" y2="1184.13" gradientTransform="matrix(0.89, -0.46, 0.46, 0.89, -311.93, -1032.77)" gradientUnits="userSpaceOnUse"><stop offset="0" stop-color="#efa6c2"/><stop offset="1" stop-color="#96cdbd"/></linearGradient></defs><title>Shirt </title><g class="cls-1"><g id="Layer_2" data-name="Layer 2"><g id="Layer_1-2" data-name="Layer 1"><path class="cls-2" d="M135.26,13.31A73,73,0,0,0,113.4,30.48c-.54-1.33-1.13-2.65-1.8-3.95A48.84,48.84,0,1,0,24.71,71.18c.18.34.37.68.55,1a73.25,73.25,0,1,0,118.52,75.13,73.25,73.25,0,1,0-8.52-134Z"/><path class="cls-3" d="M205.67,107.34l-22.21,13.85a7.71,7.71,0,0,1-9.92-1.51L170,115.59a2.56,2.56,0,0,0-4.5,1.67v93.87a8.24,8.24,0,0,1-8.24,8.24H59.13a8.24,8.24,0,0,1-8.24-8.24V117.26a2.56,2.56,0,0,0-4.5-1.67l-3.52,4.09a7.71,7.71,0,0,1-9.92,1.51L10.74,107.34a7.7,7.7,0,0,1-2.87-9.87l21.8-45.53A29.86,29.86,0,0,1,47.45,36.41l17.77-5.72,1-1.37L78.89,12.69h58.63l12.63,16.63,1,1.37L169,36.41a29.87,29.87,0,0,1,17.78,15.53l21.8,45.53A7.71,7.71,0,0,1,205.67,107.34Z"/><rect class="cls-4" x="50.89" y="173.69" width="114.63" height="17.67"/><path class="cls-3" d="M20,173.69a3.13,3.13,0,0,1-3.13,3.13H14.35v2.54a3.14,3.14,0,1,1-6.27,0v-2.54h-1v-6.27h1V168a3.14,3.14,0,0,1,6.27,0v2.54h2.54A3.14,3.14,0,0,1,20,173.69Z"/><path class="cls-3" d="M8.08,24.63h-1V18.37h1V15.82a3.14,3.14,0,0,1,6.27,0v2.55h2.54a3.13,3.13,0,0,1,0,6.26H14.35v2.55a3.14,3.14,0,0,1-6.27,0Z"/><path class="cls-3" d="M215.42,189.69a3.13,3.13,0,0,1-3.13,3.13h-2.54v2.54a3.13,3.13,0,1,1-6.27,0v-2.54h-2.54a3.14,3.14,0,1,1,0-6.27h2.54V184a3.13,3.13,0,0,1,6.27,0v2.54h2.54A3.14,3.14,0,0,1,215.42,189.69Z"/><path class="cls-5" d="M79.33,12.69,108.2,37.52,85.51,53.39a3.76,3.76,0,0,1-5.38-1.14L66.26,29.32"/><path class="cls-5" d="M150.15,29.32,136.27,52.25a3.76,3.76,0,0,1-5.38,1.14L108.21,37.52l28.87-24.83"/><path class="cls-6" d="M96.53,219.37H59.13a8.24,8.24,0,0,1-8.24-8.24V117.26a2.56,2.56,0,0,0-4.5-1.67l-3.52,4.09a7.71,7.71,0,0,1-9.92,1.51L10.74,107.34a7.7,7.7,0,0,1-2.87-9.87l21.8-45.53A29.86,29.86,0,0,1,47.45,36.41l17.77-5.72,1-1.37L78.89,12.69h58.63l12.63,16.63,1,1.37L169,36.41a29.86,29.86,0,0,1,17.78,15.53l21.8,45.53a7.71,7.71,0,0,1-2.87,9.87l-22.21,13.85a7.71,7.71,0,0,1-9.92-1.51L170,115.59a2.56,2.56,0,0,0-4.5,1.67v93.87a8.24,8.24,0,0,1-8.24,8.24H119.87"/><circle class="cls-7" cx="108.21" cy="66.02" r="4.09"/><circle class="cls-7" cx="108.21" cy="82.27" r="4.09"/><circle class="cls-7" cx="108.21" cy="98.51" r="4.09"/><line class="cls-6" x1="50.89" y1="189.69" x2="165.52" y2="189.69"/><line class="cls-6" x1="50.89" y1="173.69" x2="165.52" y2="173.69"/><path class="cls-8" d="M20,173.69a3.13,3.13,0,0,1-3.13,3.13H14.35v2.54a3.14,3.14,0,1,1-6.27,0v-2.54H5.54a3.14,3.14,0,1,1,0-6.27H8.08V168a3.14,3.14,0,0,1,6.27,0v2.54h2.54A3.14,3.14,0,0,1,20,173.69Z"/><path class="cls-8" d="M20,21.5a3.13,3.13,0,0,1-3.13,3.13H14.35v2.55a3.14,3.14,0,0,1-6.27,0V24.63H5.54a3.13,3.13,0,1,1,0-6.26H8.08V15.82a3.14,3.14,0,0,1,6.27,0v2.55h2.54A3.13,3.13,0,0,1,20,21.5Z"/><path class="cls-8" d="M215.42,189.69a3.13,3.13,0,0,1-3.13,3.13h-2.54v2.54a3.13,3.13,0,1,1-6.27,0v-2.54h-2.54a3.14,3.14,0,1,1,0-6.27h2.54V184a3.13,3.13,0,0,1,6.27,0v2.54h2.54A3.14,3.14,0,0,1,215.42,189.69Z"/><circle class="cls-7" cx="108.2" cy="219.37" r="3.15"/><line class="cls-6" x1="50.89" y1="143.27" x2="100.89" y2="143.27"/><line class="cls-6" x1="106.89" y1="143.27" x2="116.64" y2="143.27"/></g></g></g></svg>